#!OML:ASF F:\VICON\USERDATA\INSTALL\rory3\rory3.ASF
:FULLY-SPECIFIED
:DEGREES
1
root 0.37790180867710216 17.151410389275558 -33.096482999679964 1.2629780275555977 -8.625381094489871 -4.39500186576249
lfemur -12.075001654669736 10.159585196765876 -11.385515083463527
ltibia 100.83998426271651
lfoot 16.862289509874728 -15.318988897481754
ltoes 8.805715280056356
rfemur -21.25069787848564 10.093684705987782 35.681788138594875
rtibia 51.48800328734366
rfoot -19.809784001454467 -9.713181034922442
rtoes 4.082487382583794
lowerback 19.841374666925404 1.7248050366757675 1.5440804863286883
upperback -0.6023232714695798 3.058834878582359 3.442439592655418
thorax -11.977365575311598 1.461083741381736 2.0385428515589257
lowerneck -18.070714053009958 -2.4362334625513515 -3.9680399581009684
upperneck 12.421099257648018 -2.9360960585938756 3.9180912219668107
head 6.8675284216728105 -1.2502439155761558 1.5924602965498258
lclavicle 2.980152165433986e-15 1.1900929808354988e-16
lhumerus -50.12870064534932 -14.04459204661196 99.91818060465224
lradius 103.97401450430317
lwrist 29.08481617837106
lhand -20.799899092079624 4.886567101157128
lfingers 7.125019999999999
lthumb 5.567540907359705 34.793387129276674
rclavicle 2.980152165433986e-15 1.1900929808354988e-16
rhumerus -46.3403024599897 13.177996571538817 -99.30439174854844
rradius 102.68601223237874
rwrist -14.996303830937842
rhand -17.215893237554074 36.938012645634636
rfingers 7.125019999999999
rthumb 9.026996761592226 7.151153153547079
2
root 0.4198152249250527 16.99541305014155 -32.19688337695075 3.1031368920996902 -3.247635608472541 -4.462811625703609
lfemur -22.158997141403585 5.920813180500107 -11.250715273658926
ltibia 105.79498257095231
lfoot 13.551291690847648 -13.029493004164337
ltoes 8.781825301833868
rfemur -20.670698141000173 6.482032062402096 35.840087880306534
rtibia 52.16510303372887
rfoot -23.389581661383403 -12.092586258897255
rtoes 5.237446484575964
lowerback 17.506985629373773 0.09310354822177158 3.904594933855488
upperback -0.30046762427653373 1.2387311655272417 3.0312635527176415
thorax -10.184187786133796 0.47611887577239276 0.7686865168180117
lowerneck -21.743980676633456 -3.0080888061101962 -3.1994376829246916
upperneck 12.839396459370922 -3.7573113930869706 3.5996332670502036
head 7.626231075745904 -1.5899096642863637 1.2369680166387473
lclavicle 2.9801520718795393e-15 1.1900921804680086e-16
lhumerus -49.9575007841115 -13.827092517614485 99.05198429805039
lradius 102.1620172874966
lwrist 25.758929639516168
lhand -20.646500516372356 4.9719565288048635
lfingers 7.125019999999999
lthumb 5.715609483419509 34.874886585617446
rclavicle 2.9801520718795393e-15 1.1900921804680086e-16
rhumerus -41.07190708138993 14.275294144876877 -99.239592050259
rradius 104.03800990815336
rwrist -15.346601015523543
rhand -17.93538831714163 36.72951385211324
rfingers 7.125019999999999
rthumb 8.332691683107372 6.91384455085527
3
root 0.4222520165703579 16.922614291879015 -31.316583746127414 3.604523858028796 -3.054836128818532 -3.9335034995505795
lfemur -28.475794314212045 6.377422320476019 -11.966114264268782
ltibia 107.6239819464848
lfoot 9.581954305472538 -11.113396441078287
ltoes 6.859997053726456
rfemur -17.337399649689303 6.261842510896386 35.407588585990055
rtibia 51.48760328749349
rfoot -25.650980183134283 -12.872484693457908
rtoes -2.0591478421506344
lowerback 16.759689138728493 0.07114947485141232 3.2200765440002677
upperback -0.8519744985137727 1.0667917594349192 3.13952251006883
thorax -10.387585266793382 0.4309432488579816 1.3255854708559334
lowerneck -18.3115118650505 -2.664881600740294 -4.02335868238963
upperneck 10.92940923658645 -3.1955945843250513 4.032880484809488
head 6.438078240027105 -1.3693824244269088 1.6071799768881974
lclavicle 2.980152090474209e-15 1.1900929681318615e-16
lhumerus -53.53559788396568 -11.549597449606338 99.37318292848275
lradius 102.5000167683358
lwrist 24.33993538273301
lhand -20.909798071676942 5.797440995708851
lfingers 7.125019999999999
lthumb 5.461431927784465 35.70708103428978
rclavicle 2.980152090474209e-15 1.1900929681318615e-16
rhumerus -39.62730834858204 16.55898909450973 -99.57649048164336
rradius 106.0890063822759
rwrist -15.601298968460963
rhand -17.783189357984956 38.08900598540976
rfingers 7.125019999999999
rthumb 8.47953064225345 8.279266511048549
4
root 0.4340160107053661 16.92641422706305 -30.400084130485652 4.063261082046666 -2.2368783364025955 -3.895293634820441
lfemur -34.48419162505016 5.688973617170313 -12.583213393574505
ltibia 107.35498203832816
lfoot 7.605265607528516 -10.543297463668251
ltoes 3.0077805653146257
rfemur -13.311101472038036 5.269674531799131 35.43328854405695
rtibia 49.455604048600165
rfoot -25.921280006442448 -13.265683904214733
rtoes -9.048262407949968
lowerback 16.961588190596935 0.7068379082426733 4.083854512195709
upperback -0.28530679267272674 1.9901985698322187 2.4054695797786403
thorax -9.81442236615595 0.8118801028684197 -0.20162891839062008
lowerneck -23.66096325836819 -3.5094047240497614 -2.651850310898815
upperneck 12.917695935571983 -4.606226570211094 3.8596515972562466
head 7.990782741141423 -1.9119256339029365 1.1046708896844977
lclavicle 2.980152142481191e-15 1.1900931650486238e-16
lhumerus -53.98529751947179 -14.039292058089265 99.09988409380914
lradius 103.38201541360257
lwrist 26.233927717015792
lhand -20.626600701140447 5.746631336278211
lfingers 7.125019999999999
lthumb 5.734849298394795 35.64898142185544
rclavicle 2.980152142481191e-15 1.1900931650486238e-16
rhumerus -34.906812489368576 15.402091652976146 -98.95289338514208
rradius 108.6110020467016
rwrist -16.092895017397108
rhand -18.099487194918304 38.09840593101696
rfingers 7.125019999999999
rthumb 8.17427280604443 8.276566526946455
